<?xml version="1.0" encoding="UTF-8"?>
<svg
  xmlns="http://www.w3.org/2000/svg"
  xmlns:xlink="http://www.w3.org/1999/xlink"
  width="0"
  height="0"
>
  <defs>
    <symbol
      viewBox="0 0 24 24"
      fill="none"
      stroke="currentColor"
      stroke-linecap="round"
      stroke-linejoin="round"
      stroke-width="2"
      id="Moon"
    >
      <path
        d="M21 13.907A7.948 7.948 0 0 1 10.093 3 9.112 9.112 0 1 0 21 13.907Z"
      ></path>
    </symbol>
    <symbol
      viewBox="0 0 24 24"
      fill="none"
      stroke="currentColor"
      stroke-linecap="round"
      stroke-linejoin="round"
      stroke-width="2"
      id="Minus"
    >
      <path d="M5 12h14"></path>
    </symbol>
    <symbol
      viewBox="0 0 24 24"
      fill="none"
      stroke="currentColor"
      stroke-linecap="round"
      stroke-linejoin="round"
      stroke-width="2"
      id="Monitor"
    >
      <path
        d="M17 22H7m5-5v5m-7.6-5h15.2c.84 0 1.26 0 1.581-.163a1.5 1.5 0 0 0 .655-.656c.164-.32.164-.74.164-1.581V4.4c0-.84 0-1.26-.163-1.581a1.5 1.5 0 0 0-.656-.656C20.861 2 20.441 2 19.6 2H4.4c-.84 0-1.26 0-1.581.163a1.5 1.5 0 0 0-.656.656C2 3.139 2 3.559 2 4.4v10.2c0 .84 0 1.26.163 1.581a1.5 1.5 0 0 0 .656.655c.32.164.74.164 1.581.164Z"
      ></path>
    </symbol>
    <symbol
      viewBox="0 0 24 24"
      fill="none"
      stroke="currentColor"
      stroke-linecap="round"
      stroke-linejoin="round"
      stroke-width="2"
      id="Cross"
    >
      <path d="m6 18 6-6m0 0 6-6m-6 6L6 6m6 6 6 6"></path>
    </symbol>
    <symbol
      viewBox="0 0 24 24"
      fill="none"
      stroke="currentColor"
      stroke-linecap="round"
      stroke-linejoin="round"
      stroke-width="2"
      id="Spinner"
    >
      <path
        d="M12 2v4m0 12v4M6 12H2m20 0h-4m1.078 7.078L16.25 16.25M19.078 5 16.25 7.828M4.922 19.078 7.75 16.25M4.922 5 7.75 7.828"
      ></path>
    </symbol>
    <symbol
      viewBox="0 0 24 24"
      fill="none"
      stroke="currentColor"
      stroke-linecap="round"
      stroke-linejoin="round"
      stroke-width="2"
      id="Sun"
    >
      <g clip-path="url(#sun__a)">
        <path
          d="M12 23v-1m-7.778-2.222.707-.707M1 12h1m2.222-7.778.707.707M12 2V1m7.071 3.929.707-.707M22 12h1m-3.929 7.071.707.707M18 12a6 6 0 1 1-12 0 6 6 0 0 1 12 0Z"
        ></path>
      </g>
      <defs>
        <clipPath id="sun__a">
          <rect width="24" height="24" fill="currentColor"></rect>
        </clipPath>
      </defs>
    </symbol>
    <symbol viewBox="0 0 3733 1024" fill="none" id="RailwayWordmark">
      <path
        d="M323.27 461.245a357.915 357.915 0 0 0-3.27 35.448h534.737c-1.868-3.648-4.376-6.937-6.906-10.156-91.417-118.106-140.593-107.866-210.938-110.866-23.453-.965-39.359-1.352-132.713-1.352-49.965 0-104.286.127-157.182.267-6.847 18.483-13.451 36.399-16.667 50.972h274.018v35.687H323.27Zm535.681 71.171H320.275c.564 9.522 1.452 18.918 2.734 28.187h497.33c22.171 0 34.581-12.579 38.612-28.187ZM350.949 657.96S433.397 860.402 671.629 864c142.389 0 264.736-84.567 320.31-206.04h-640.99Z"
        fill="#fff"
      ></path>
      <path
        d="M671.624 160c-131.656 0-246.223 72.298-306.723 179.17 47.279-.098 139.359-.155 139.359-.155h.021v-.035c108.837 0 112.882.486 134.144 1.374l13.164.486c45.857 1.528 102.22 6.451 146.568 40.005 24.074 18.199 58.831 58.366 79.55 86.982 19.154 26.469 24.665 56.895 11.642 86.047-11.988 26.792-37.78 42.773-69.014 42.773H331.474s2.91 12.336 7.274 25.953h667.312A351.08 351.08 0 0 0 1024 512.15C1024.01 317.682 866.241 160 671.624 160Zm706.506 499h83.04V519.781h60.59L1596.17 659h91.66l-83.42-152.642c44.68-19.176 69.42-58.104 69.42-111.797 0-78.047-51.58-128.288-140.75-128.288h-154.95V659Zm83.04-205.952V334.156h55.99c47.94 0 71.14 21.286 71.14 60.405 0 38.928-23.2 58.487-70.76 58.487h-56.37Zm353.8 211.513c43.53 0 71.71-18.984 86.1-46.406h2.3V659h77.47V460.335c0-70.184-59.45-99.716-125.03-99.716-70.57 0-116.97 33.75-128.29 87.443l75.56 6.137c5.56-19.56 23.01-33.942 52.35-33.942 27.8 0 43.72 13.999 43.72 38.161v1.15c0 18.985-20.14 21.477-71.34 26.463-58.29 5.37-110.64 24.929-110.64 90.703 0 58.296 41.61 87.827 97.8 87.827Zm23.39-56.378c-25.12 0-43.15-11.697-43.15-34.133 0-23.012 18.99-34.326 47.75-38.353 17.84-2.492 46.98-6.711 56.76-13.231v31.257c0 30.874-25.5 54.46-61.36 54.46ZM2044.22 659h81.69V364.455h-81.69V659Zm41.03-332.514c24.36 0 44.3-18.601 44.3-41.421 0-22.627-19.94-41.228-44.3-41.228-24.16 0-44.1 18.601-44.1 41.228 0 22.82 19.94 41.421 44.1 41.421Zm187.79-60.213h-81.69V659h81.69V266.273ZM2396.58 659h86.29l50.63-185.241h3.64L2587.76 659h86.49l79.96-294.545h-82.45l-44.88 196.747h-2.49l-48.32-196.747h-81.12l-47.56 197.897h-2.68l-45.64-197.897h-82.65L2396.58 659Zm485.2 5.561c43.53 0 71.72-18.984 86.1-46.406h2.3V659h77.48V460.335c0-70.184-59.45-99.716-125.03-99.716-70.57 0-116.98 33.75-128.29 87.443l75.55 6.137c5.56-19.56 23.01-33.942 52.35-33.942 27.81 0 43.73 13.999 43.73 38.161v1.15c0 18.985-20.14 21.477-71.34 26.463-58.3 5.37-110.65 24.929-110.65 90.703 0 58.296 41.62 87.827 97.8 87.827Zm23.4-56.378c-25.12 0-43.15-11.697-43.15-34.133 0-23.012 18.99-34.326 47.75-38.353 17.83-2.492 46.98-6.711 56.76-13.231v31.257c0 30.874-25.5 54.46-61.36 54.46Zm245.74 161.272c60.79 0 93-31.066 109.69-78.623l114.48-325.994-86.49-.383-61.55 216.306h-3.07L3163 364.455h-85.91l105.66 302.983-4.79 12.464c-10.74 27.614-31.26 28.956-60.02 20.135l-18.41 60.98c11.69 4.986 30.68 8.438 51.39 8.438Z"
        fill="#fff"
      ></path>
    </symbol>
    <symbol
      viewBox="0 0 24 24"
      fill="none"
      stroke="currentColor"
      stroke-linecap="round"
      stroke-linejoin="round"
      stroke-width="2"
      id="Check"
    >
      <path
        d="m4 12.374 5.351 5.346.428-.748a30.506 30.506 0 0 1 9.278-10.048L20 6.28"
      ></path>
    </symbol>
    <symbol
      viewBox="0 0 24 24"
      fill="none"
      stroke="currentColor"
      stroke-linecap="round"
      stroke-linejoin="round"
      stroke-width="2"
      id="ThreeDotsHorizontal"
    >
      <path d="M6 12a1 1 0 1 1-2 0 1 1 0 0 1 2 0Z"></path>
      <path d="M13 12a1 1 0 1 1-2 0 1 1 0 0 1 2 0Z"></path>
      <path d="M20 12a1 1 0 1 1-2 0 1 1 0 0 1 2 0Z"></path>
    </symbol>
    <symbol
      viewBox="0 0 24 24"
      fill="none"
      stroke="currentColor"
      stroke-linecap="round"
      stroke-linejoin="round"
      stroke-width="2"
      id="ChevronRight"
    >
      <path
        d="M10 8.14a20.351 20.351 0 0 1 3.894 3.701.472.472 0 0 1 0 .596A20.353 20.353 0 0 1 10 16.139"
      ></path>
    </symbol>
    <symbol
      viewBox="0 0 24 24"
      fill="none"
      stroke="currentColor"
      stroke-linecap="round"
      stroke-linejoin="round"
      stroke-width="2"
      id="ChevronUp"
    >
      <path
        d="M8 14.264a20.354 20.354 0 0 1 3.702-3.894.472.472 0 0 1 .596 0A20.355 20.355 0 0 1 16 14.265"
      ></path>
    </symbol>
    <symbol
      viewBox="0 0 24 24"
      fill="none"
      stroke="currentColor"
      stroke-linecap="round"
      stroke-linejoin="round"
      stroke-width="2"
      id="ChevronDown"
    >
      <path
        d="M8 10.14a20.36 20.36 0 0 0 3.702 3.893c.175.141.42.141.596 0A20.361 20.361 0 0 0 16 10.14"
      ></path>
    </symbol>
    <symbol
      viewBox="0 0 24 24"
      fill="none"
      stroke="currentColor"
      stroke-linecap="round"
      stroke-linejoin="round"
      stroke-width="2"
      id="Circle"
    >
      <path d="M2.85 12a9.15 9.15 0 1 0 18.3 0 9.15 9.15 0 0 0-18.3 0Z"></path>
      <path d="M12 13a1 1 0 1 0 0-2 1 1 0 0 0 0 2Z"></path>
    </symbol>
  </defs>
</svg>
